{
  "asset": {
    "generator": "Khronos glTF Blender I/O v4.4.56",
    "version": "2.0"
  },
  "scene": 0,
  "scenes": [
    {
      "name": "Scene",
      "nodes": [0]
    }
  ],
  "nodes": [
    {
      "mesh": 0,
      "name": "S\u00f3lido1",
      "rotation": [0.7071068286895752, 0, 0, 0.7071068286895752],
      "translation": [0, 1.217274802911561e-5, -0.07074927538633347]
    }
  ],
  "materials": [
    {
      "doubleSided": true,
      "name": "Level 1.002",
      "pbrMetallicRoughness": {
        "baseColorFactor": [
          0.7921568751335144, 0.8196078538894653, 0.9333333373069763, 1
        ],
        "metallicFactor": 0,
        "roughnessFactor": 0.5527864098548889
      }
    }
  ],
  "meshes": [
    {
      "name": "S\u00f3lido1.002",
      "primitives": [
        {
          "attributes": {
            "POSITION": 0,
            "NORMAL": 1,
            "TEXCOORD_0": 2
          },
          "indices": 3,
          "material": 0
        }
      ]
    }
  ],
  "textures": [
    {
      "sampler": 0,
      "source": 0
    },
    {
      "sampler": 0,
      "source": 1
    },
    {
      "sampler": 0,
      "source": 2
    }
  ],
  "images": [
    {
      "mimeType": "image/png",
      "name": "Part_Normal",
      "uri": "textures/Part_Normal.png"
    },
    {
      "mimeType": "image/png",
      "name": "Part_BaseColor",
      "uri": "textures/Part_BaseColor.png"
    },
    {
      "mimeType": "image/png",
      "name": "Part_Metallic-Part_Roughness",
      "uri": "textures/Part_Metallic-Part_Roughness.png"
    }
  ],
  "accessors": [
    {
      "bufferView": 0,
      "componentType": 5126,
      "count": 1025,
      "max": [0.4675813317298889, 0.07074927538633347, 0.4675982892513275],
      "min": [-0.467590868473053, -0.044872015714645386, -0.4675739109516144],
      "type": "VEC3"
    },
    {
      "bufferView": 1,
      "componentType": 5126,
      "count": 1025,
      "type": "VEC3"
    },
    {
      "bufferView": 2,
      "componentType": 5126,
      "count": 1025,
      "type": "VEC2"
    },
    {
      "bufferView": 3,
      "componentType": 5123,
      "count": 3096,
      "type": "SCALAR"
    }
  ],
  "bufferViews": [
    {
      "buffer": 0,
      "byteLength": 12300,
      "byteOffset": 0,
      "target": 34962
    },
    {
      "buffer": 0,
      "byteLength": 12300,
      "byteOffset": 12300,
      "target": 34962
    },
    {
      "buffer": 0,
      "byteLength": 8200,
      "byteOffset": 24600,
      "target": 34962
    },
    {
      "buffer": 0,
      "byteLength": 6192,
      "byteOffset": 32800,
      "target": 34963
    }
  ],
  "buffers": [
    {
      "byteLength": 38992,
      "uri": "Disco.bin"
    }
  ]
}
