{
  "asset": {
    "generator": "Khronos glTF Blender I/O v4.3.47",
    "version": "2.0"
  },
  "scene": 0,
  "scenes": [
    {
      "name": "Scene",
      "nodes": [0]
    }
  ],
  "nodes": [
    {
      "mesh": 0,
      "name": "00.846.150.99",
      "rotation": [0.7071068286895752, 0, 0, 0.7071068286895752]
    }
  ],
  "materials": [
    {
      "doubleSided": true,
      "name": "00.846.150.99 ",
      "normalTexture": {
        "index": 0
      },
      "pbrMetallicRoughness": {
        "baseColorTexture": {
          "index": 1
        },
        "metallicRoughnessTexture": {
          "index": 2
        }
      }
    }
  ],
  "meshes": [
    {
      "name": "00.846.150.001",
      "primitives": [
        {
          "attributes": {
            "POSITION": 0,
            "NORMAL": 1,
            "TEXCOORD_0": 2
          },
          "indices": 3,
          "material": 0
        }
      ]
    }
  ],
  "textures": [
    {
      "sampler": 0,
      "source": 0
    },
    {
      "sampler": 0,
      "source": 1
    },
    {
      "sampler": 0,
      "source": 2
    }
  ],
  "images": [
    {
      "mimeType": "image/png",
      "name": "Part_Normal",
      "uri": "textures/Part_Normal.png"
    },
    {
      "mimeType": "image/png",
      "name": "Part_BaseColor",
      "uri": "textures/Part_BaseColor.png"
    },
    {
      "mimeType": "image/png",
      "name": "Part_Metallic-Part_Roughness",
      "uri": "textures/Part_Metallic-Part_Roughness.png"
    }
  ],
  "accessors": [
    {
      "bufferView": 0,
      "componentType": 5126,
      "count": 312,
      "max": [0.4000000059604645, 0.75, 0.47631579637527466],
      "min": [-0.4000000059604645, -0.75, -0.5236842036247253],
      "type": "VEC3"
    },
    {
      "bufferView": 1,
      "componentType": 5126,
      "count": 312,
      "type": "VEC3"
    },
    {
      "bufferView": 2,
      "componentType": 5126,
      "count": 312,
      "type": "VEC2"
    },
    {
      "bufferView": 3,
      "componentType": 5123,
      "count": 900,
      "type": "SCALAR"
    }
  ],
  "bufferViews": [
    {
      "buffer": 0,
      "byteLength": 3744,
      "byteOffset": 0,
      "target": 34962
    },
    {
      "buffer": 0,
      "byteLength": 3744,
      "byteOffset": 3744,
      "target": 34962
    },
    {
      "buffer": 0,
      "byteLength": 2496,
      "byteOffset": 7488,
      "target": 34962
    },
    {
      "buffer": 0,
      "byteLength": 1800,
      "byteOffset": 9984,
      "target": 34963
    }
  ],
  "samplers": [
    {
      "magFilter": 9729,
      "minFilter": 9987
    }
  ],
  "buffers": [
    {
      "byteLength": 11784,
      "uri": "bocolla.bin"
    }
  ]
}
