{
  "asset": {
    "generator": "Khronos glTF Blender I/O v4.3.47",
    "version": "2.0"
  },
  "scene": 0,
  "scenes": [
    {
      "name": "Scene",
      "nodes": [0]
    }
  ],
  "nodes": [
    {
      "mesh": 0,
      "name": "27.818.048.70",
      "rotation": [0.7071068286895752, 0, 0, 0.7071068286895752]
    }
  ],
  "materials": [
    {
      "doubleSided": true,
      "name": "27.818.048.70",
      "normalTexture": {
        "index": 0
      },
      "pbrMetallicRoughness": {
        "baseColorTexture": {
          "index": 1
        },
        "metallicRoughnessTexture": {
          "index": 2
        }
      }
    }
  ],
  "meshes": [
    {
      "name": "27.818.048.001",
      "primitives": [
        {
          "attributes": {
            "POSITION": 0,
            "NORMAL": 1,
            "TEXCOORD_0": 2
          },
          "indices": 3,
          "material": 0
        }
      ]
    }
  ],
  "textures": [
    {
      "sampler": 0,
      "source": 0
    },
    {
      "sampler": 0,
      "source": 1
    },
    {
      "sampler": 0,
      "source": 2
    }
  ],
  "images": [
    {
      "mimeType": "image/png",
      "name": "Part_Normal",
      "uri": "textures/Part_Normal.png"
    },
    {
      "mimeType": "image/png",
      "name": "Part_BaseColor",
      "uri": "textures/Part_BaseColor.png"
    },
    {
      "mimeType": "image/png",
      "name": "Part_Metallic-Part_Roughness",
      "uri": "textures/Part_Metallic-Part_Roughness.png"
    }
  ],
  "accessors": [
    {
      "bufferView": 0,
      "componentType": 5126,
      "count": 1658,
      "max": [0.2564757168292999, 0.7215757369995117, 0.607296347618103],
      "min": [-0.2547152638435364, -0.7548842430114746, -0.5927037000656128],
      "type": "VEC3"
    },
    {
      "bufferView": 1,
      "componentType": 5126,
      "count": 1658,
      "type": "VEC3"
    },
    {
      "bufferView": 2,
      "componentType": 5126,
      "count": 1658,
      "type": "VEC2"
    },
    {
      "bufferView": 3,
      "componentType": 5123,
      "count": 6288,
      "type": "SCALAR"
    }
  ],
  "bufferViews": [
    {
      "buffer": 0,
      "byteLength": 19896,
      "byteOffset": 0,
      "target": 34962
    },
    {
      "buffer": 0,
      "byteLength": 19896,
      "byteOffset": 19896,
      "target": 34962
    },
    {
      "buffer": 0,
      "byteLength": 13264,
      "byteOffset": 39792,
      "target": 34962
    },
    {
      "buffer": 0,
      "byteLength": 12576,
      "byteOffset": 53056,
      "target": 34963
    }
  ],
  "samplers": [
    {
      "magFilter": 9729,
      "minFilter": 9987
    }
  ],
  "buffers": [
    {
      "byteLength": 65632,
      "uri": "porca_rapida-modelo27.bin"
    }
  ]
}
