{
  "asset": {
    "generator": "Khronos glTF Blender I/O v4.3.47",
    "version": "2.0"
  },
  "scene": 0,
  "scenes": [
    {
      "name": "Scene",
      "nodes": [0]
    }
  ],
  "nodes": [
    {
      "mesh": 0,
      "name": "14.818.042.70",
      "rotation": [0.7071068286895752, 0, 0, 0.7071068286895752]
    }
  ],
  "materials": [
    {
      "doubleSided": true,
      "name": "14.818.042.70",
      "normalTexture": {
        "index": 0
      },
      "pbrMetallicRoughness": {
        "baseColorTexture": {
          "index": 1
        },
        "metallicRoughnessTexture": {
          "index": 2
        }
      }
    }
  ],
  "meshes": [
    {
      "name": "14.818.042.002",
      "primitives": [
        {
          "attributes": {
            "POSITION": 0,
            "NORMAL": 1,
            "TEXCOORD_0": 2
          },
          "indices": 3,
          "material": 0
        }
      ]
    }
  ],
  "textures": [
    {
      "sampler": 0,
      "source": 0
    },
    {
      "sampler": 0,
      "source": 1
    },
    {
      "sampler": 0,
      "source": 2
    }
  ],
  "images": [
    {
      "mimeType": "image/png",
      "name": "Part_Normal",
      "uri": "textures/Part_Normal.png"
    },
    {
      "mimeType": "image/png",
      "name": "Part_BaseColor",
      "uri": "textures/Part_BaseColor.png"
    },
    {
      "mimeType": "image/png",
      "name": "Part_Metallic-Part_Roughness",
      "uri": "textures/Part_Metallic-Part_Roughness.png"
    }
  ],
  "accessors": [
    {
      "bufferView": 0,
      "componentType": 5126,
      "count": 1113,
      "max": [0.2514006197452545, 0.5204368829727173, 0.45257094502449036],
      "min": [-0.2780471742153168, -0.6588901281356812, -0.44742903113365173],
      "type": "VEC3"
    },
    {
      "bufferView": 1,
      "componentType": 5126,
      "count": 1113,
      "type": "VEC3"
    },
    {
      "bufferView": 2,
      "componentType": 5126,
      "count": 1113,
      "type": "VEC2"
    },
    {
      "bufferView": 3,
      "componentType": 5123,
      "count": 3390,
      "type": "SCALAR"
    }
  ],
  "bufferViews": [
    {
      "buffer": 0,
      "byteLength": 13356,
      "byteOffset": 0,
      "target": 34962
    },
    {
      "buffer": 0,
      "byteLength": 13356,
      "byteOffset": 13356,
      "target": 34962
    },
    {
      "buffer": 0,
      "byteLength": 8904,
      "byteOffset": 26712,
      "target": 34962
    },
    {
      "buffer": 0,
      "byteLength": 6780,
      "byteOffset": 35616,
      "target": 34963
    }
  ],
  "samplers": [
    {
      "magFilter": 9729,
      "minFilter": 9987
    }
  ],
  "buffers": [
    {
      "byteLength": 42396,
      "uri": "porca_rapida-modelo14.bin"
    }
  ]
}
